<?xml version="1.0" encoding="UTF-8"?>
<svg version="1.1" xmlns="http://www.w3.org/2000/svg" width="400" height="400">
<path d="M0 0 C2.89204958 1.40465558 5.62601021 3.02283557 8.375 4.6875 C10.06634774 5.68890091 11.75775701 6.6901979 13.44921875 7.69140625 C14.34560059 8.22652832 15.24198242 8.76165039 16.16552734 9.31298828 C21.1542155 12.2821386 26.17220604 15.20109431 31.1875 18.125 C32.21528564 18.72521973 33.24307129 19.32543945 34.30200195 19.94384766 C41.75537653 24.29140087 49.25089499 28.55467471 56.78417969 32.76171875 C81.06569577 46.33111601 81.06569577 46.33111601 89.8125 51.625 C90.78832031 52.21539062 91.76414062 52.80578125 92.76953125 53.4140625 C95 55 95 55 97 58 C97.26006222 60.1199398 97.26006222 60.1199398 97.27415466 62.61703491 C97.28412979 63.56473251 97.29410492 64.51243011 97.30438232 65.48884583 C97.305047 66.52683823 97.30571167 67.56483063 97.30639648 68.63427734 C97.31472 69.72883743 97.32304352 70.82339752 97.33161926 71.9511261 C97.35576936 75.57943245 97.36449741 79.20755923 97.37109375 82.8359375 C97.38005595 85.35316015 97.38917771 87.87038224 97.39845276 90.38760376 C97.41495872 95.66856628 97.42267901 100.94948481 97.42553711 106.23046875 C97.4291721 112.3308027 97.45906411 118.43063343 97.50094169 124.53081357 C97.53983534 130.40252396 97.55113002 136.27403486 97.55226326 142.14586258 C97.55647514 144.64257156 97.56894788 147.1392806 97.58978081 149.63590622 C97.61659112 153.12669623 97.61189947 156.61609372 97.59936523 160.10693359 C97.61419952 161.14087753 97.62903381 162.17482147 97.64431763 163.24009705 C97.57239801 170.26244122 97.57239801 170.26244122 94.60241699 174.08938599 C92.2667023 175.80419543 90.03983759 177.31804136 87.47265625 178.65625 C86.60995117 179.11427002 85.74724609 179.57229004 84.85839844 180.04418945 C83.93575195 180.52460693 83.01310547 181.00502441 82.0625 181.5 C74.35374182 185.60780547 66.74988123 189.83427223 59.25 194.3125 C50.1673125 199.72851218 41.03590174 205.05182387 31.85961914 210.30786133 C26.2682414 213.51539923 20.70832655 216.76341064 15.19140625 220.09765625 C14.09876465 220.75258057 13.00612305 221.40750488 11.88037109 222.08227539 C9.79664068 223.33382015 7.71975204 224.59684793 5.65087891 225.87280273 C4.71808105 226.43040283 3.7852832 226.98800293 2.82421875 227.5625 C2.01041748 228.05878906 1.19661621 228.55507813 0.3581543 229.06640625 C-2.56278745 230.22280766 -4.03281577 229.91619283 -7 229 C-11.65543594 226.86759262 -16.10264968 224.32438217 -20.5625 221.8125 C-21.27156494 221.41377686 -21.98062988 221.01505371 -22.71118164 220.60424805 C-26.84719152 218.26306651 -30.91323198 215.84266309 -34.9375 213.3125 C-42.3732749 208.67094263 -50.04903596 204.46870064 -57.70776367 200.20874023 C-64.60654605 196.36337367 -71.41288787 192.41328204 -78.15234375 188.296875 C-81.23548481 186.43237673 -84.36281736 184.65565338 -87.50390625 182.890625 C-88.46393555 182.35002441 -89.42396484 181.80942383 -90.41308594 181.25244141 C-92.31270565 180.18618467 -94.21560017 179.12573659 -96.12207031 178.07177734 C-97.41709473 177.344021 -97.41709473 177.344021 -98.73828125 176.6015625 C-99.51212158 176.17182129 -100.28596191 175.74208008 -101.08325195 175.29931641 C-103 174 -103 174 -105 171 C-105.24888897 169.0373764 -105.24888897 169.0373764 -105.24723816 166.76501465 C-105.25352989 165.47006577 -105.25352989 165.47006577 -105.25994873 164.1489563 C-105.25432922 163.20454681 -105.24870972 162.26013733 -105.24291992 161.28710938 C-105.24576744 159.79139908 -105.24576744 159.79139908 -105.24867249 158.26547241 C-105.2523864 154.9581524 -105.24166123 151.65105063 -105.23046875 148.34375 C-105.22927642 146.04268418 -105.2288239 143.74161787 -105.2290802 141.44055176 C-105.22751389 136.60844897 -105.2192175 131.77642011 -105.20581055 126.94433594 C-105.18889677 120.77212258 -105.18499406 114.59999108 -105.18575573 108.42775726 C-105.18548263 103.66975127 -105.17997776 98.91176291 -105.17275429 94.15376282 C-105.16958621 91.87974684 -105.16760459 89.60572888 -105.16686058 87.33171082 C-105.16467282 84.13712225 -105.15587459 80.94261723 -105.14526367 77.74804688 C-105.14571686 76.81983124 -105.14617004 75.8916156 -105.14663696 74.93527222 C-105.06069984 57.08571635 -105.06069984 57.08571635 -101.515625 53.45703125 C-99.89914063 52.64298828 -99.89914063 52.64298828 -98.25 51.8125 C-97.05925798 51.17697491 -95.86917156 50.54022021 -94.6796875 49.90234375 C-94.06834961 49.59151855 -93.45701172 49.28069336 -92.82714844 48.96044922 C-89.90930722 47.42667218 -87.15731231 45.63980001 -84.375 43.875 C-79.56576581 40.91325073 -74.69064282 38.14650347 -69.71484375 35.4765625 C-65.36416846 33.11029594 -61.10929766 30.58344174 -56.83886719 28.07617188 C-46.42823576 21.9834922 -35.98942157 15.93152089 -25.48828125 9.99609375 C-22.89833811 8.52778542 -20.34321355 7.00881595 -17.79296875 5.47265625 C-16.36201651 4.62754093 -14.93102759 3.78248772 -13.5 2.9375 C-12.51157104 2.32720947 -12.51157104 2.32720947 -11.50317383 1.70458984 C-7.19873362 -0.8083975 -4.74963653 -1.61560526 0 0 Z " fill="#C9C9CA" transform="translate(204,86)"/>
<path d="M0 0 C4.41220253 1.17658734 6.63946436 2.04991888 9 6 C9.38311005 8.24298763 9.38311005 8.24298763 9.39440918 10.73728943 C9.40575897 11.68636169 9.41710876 12.63543396 9.42880249 13.61326599 C9.42587189 14.64766312 9.42294128 15.68206024 9.41992188 16.74780273 C9.42839142 17.84250885 9.43686096 18.93721497 9.44558716 20.06509399 C9.46900899 23.68804504 9.46997806 27.31057269 9.46875 30.93359375 C9.47584828 33.44938834 9.48354679 35.9651813 9.49182129 38.48097229 C9.50527792 43.7559849 9.50701031 49.03088821 9.50097656 54.3059082 C9.49433533 60.39890222 9.51720395 66.49129093 9.55429029 72.58416218 C9.58870247 78.45109177 9.59532297 84.31778328 9.59120178 90.1848011 C9.592897 92.67870957 9.60257788 95.17262573 9.62034607 97.66647148 C9.64244934 101.15240544 9.63287613 104.63687433 9.61523438 108.12280273 C9.62849762 109.15517563 9.64176086 110.18754852 9.65542603 111.25120544 C9.57286746 118.26237843 9.57286746 118.26237843 6.60142517 122.08839417 C4.26617471 123.80440678 2.04011534 125.31789658 -0.52734375 126.65625 C-1.82140137 127.34328003 -1.82140137 127.34328003 -3.14160156 128.04418945 C-4.06424805 128.52460693 -4.98689453 129.00502441 -5.9375 129.5 C-13.64625818 133.60780547 -21.25011877 137.83427223 -28.75 142.3125 C-37.8326875 147.72851218 -46.96409826 153.05182387 -56.14038086 158.30786133 C-61.7317586 161.51539923 -67.29167345 164.76341064 -72.80859375 168.09765625 C-73.90123535 168.75258057 -74.99387695 169.40750488 -76.11962891 170.08227539 C-78.20335932 171.33382015 -80.28024796 172.59684793 -82.34912109 173.87280273 C-83.28191895 174.43040283 -84.2147168 174.98800293 -85.17578125 175.5625 C-85.98958252 176.05878906 -86.80338379 176.55507813 -87.6418457 177.06640625 C-90.51256508 178.20292462 -92.08334658 177.86544119 -95 177 C-94.34 176.67 -93.68 176.34 -93 176 C-93.01420392 175.42353603 -93.02840784 174.84707207 -93.04304218 174.2531395 C-93.38249365 160.17947687 -93.60403453 146.10799769 -93.69690418 132.03048325 C-93.74461888 125.22180655 -93.83113603 118.41789037 -94.01147461 111.61132812 C-94.18557473 105.03599828 -94.24828123 98.46493833 -94.24460411 91.8872757 C-94.2611165 89.3846953 -94.31429956 86.88206746 -94.40552711 84.38109589 C-95.06606609 65.32160009 -95.06606609 65.32160009 -89.98153305 59.81330872 C-84.98127664 55.97526733 -79.52100946 53.47736588 -73.69534874 51.14899445 C-69.41826016 49.32572351 -65.52114905 46.92198992 -61.5625 44.5 C-60.23171417 43.71663043 -58.89988908 42.93501977 -57.56640625 42.15625 C-55.2185815 40.75929584 -52.96423304 39.30867441 -50.6875 37.7890625 C-48.14358885 36.09558676 -45.86366674 35.02798293 -43 34 C-42.071875 33.62875 -41.14375 33.2575 -40.1875 32.875 C-39.465625 32.58625 -38.74375 32.2975 -38 32 C-38 31.34 -38 30.68 -38 30 C-37.33613281 29.68546875 -36.67226562 29.3709375 -35.98828125 29.046875 C-27.77418 25.45245167 -27.77418 25.45245167 -22 19 C-21.34 19 -20.68 19 -20 19 C-20 18.34 -20 17.68 -20 17 C-18.515 17.495 -18.515 17.495 -17 18 C-14.34754398 17.33903214 -14.34754398 17.33903214 -12 16 C-11.67 15.01 -11.34 14.02 -11 13 C-9.33333333 12.33333333 -7.66666667 11.66666667 -6 11 C-5.67 10.01 -5.34 9.02 -5 8 C-4.505 8.99 -4.505 8.99 -4 10 C-2.68 9.67 -1.36 9.34 0 9 C0 8.34 0 7.68 0 7 C1.32 7 2.64 7 4 7 C4.33 6.01 4.66 5.02 5 4 C4.175 3.525625 3.35 3.05125 2.5 2.5625 C1.675 2.046875 0.85 1.53125 0 1 C0 0.67 0 0.34 0 0 Z " fill="#4A4A4C" transform="translate(292,138)"/>
<path d="M0 0 C3.555782 1.34211975 6.79105167 2.92244697 10.08203125 4.8203125 C11.01337891 5.35527344 11.94472656 5.89023438 12.90429688 6.44140625 C13.86400391 6.99699219 14.82371094 7.55257812 15.8125 8.125 C16.79154297 8.68832031 17.77058594 9.25164062 18.77929688 9.83203125 C21.18789555 11.21844415 23.59471395 12.60785055 26 14 C23.67578125 16.015625 23.67578125 16.015625 21 18 C18.1875 17.75 18.1875 17.75 16 17 C16 14.69 16 12.38 16 10 C13.36 9.34 10.72 8.68 8 8 C7.67 8.66 7.34 9.32 7 10 C4.69 10 2.38 10 0 10 C0.33 9.01 0.66 8.02 1 7 C1.66 7 2.32 7 3 7 C3 6.34 3 5.68 3 5 C2.34 5 1.68 5 1 5 C0.67 3.35 0.34 1.7 0 0 Z " fill="#5A5A5B" transform="translate(216,94)"/>
<path d="M0 0 C6.0970883 1.64427339 11.26312228 4.80217239 16.6875 7.9375 C17.63689453 8.47568359 18.58628906 9.01386719 19.56445312 9.56835938 C27.23018565 13.96815348 27.23018565 13.96815348 30 17 C28.02 16.67 26.04 16.34 24 16 C24 16.66 24 17.32 24 18 C22.02 18 20.04 18 18 18 C18 17.34 18 16.68 18 16 C18.99 16 19.98 16 21 16 C21 15.34 21 14.68 21 14 C19.865625 14.020625 18.73125 14.04125 17.5625 14.0625 C14 14 14 14 13 13 C12.95936168 11.33382885 12.957279 9.66611905 13 8 C10.69 7.67 8.38 7.34 6 7 C6 6.34 6 5.68 6 5 C5.38125 4.9175 4.7625 4.835 4.125 4.75 C2 4 2 4 0.75 1.9375 C0.5025 1.298125 0.255 0.65875 0 0 Z " fill="#6D6D6D" transform="translate(243,110)"/>
<path d="M0 0 C0.99 0.33 1.98 0.66 3 1 C-7.59562163 7.45178941 -18.31950386 13.67508961 -29.07373047 19.85766602 C-30.15541504 20.47955811 -31.23709961 21.1014502 -32.3515625 21.7421875 C-33.31916504 22.2976123 -34.28676758 22.85303711 -35.28369141 23.42529297 C-37.10678692 24.48218368 -38.90525408 25.58264484 -40.67724609 26.72314453 C-43 28 -43 28 -45.8125 27.6875 C-46.534375 27.460625 -47.25625 27.23375 -48 27 C-47.01 26.67 -46.02 26.34 -45 26 C-43.48963511 25.22530062 -41.99371018 24.42221425 -40.5078125 23.6015625 C-39.63769531 23.12203125 -38.76757812 22.6425 -37.87109375 22.1484375 C-36.51177734 21.39433594 -36.51177734 21.39433594 -35.125 20.625 C-34.22652344 20.13 -33.32804688 19.635 -32.40234375 19.125 C-28.89347328 17.18656934 -25.40643802 15.25019691 -21.9921875 13.1484375 C-20 12 -20 12 -18 12 C-18.33 11.01 -18.66 10.02 -19 9 C-17.72189453 8.88011719 -17.72189453 8.88011719 -16.41796875 8.7578125 C-12.45675394 7.87955459 -9.61461334 6.11722297 -6.3125 3.875 C-4.23481676 2.46472239 -2.20619246 1.21944416 0 0 Z " fill="#1C1C1C" transform="translate(245,288)"/>
<path d="M0 0 C3 0 6 0 9 0 C6.6405398 2.60800223 4.16372525 4.18652896 1.09765625 5.890625 C0.12981201 6.43251465 -0.83803223 6.9744043 -1.83520508 7.53271484 C-2.8589624 8.09941895 -3.88271973 8.66612305 -4.9375 9.25 C-7.02391487 10.41320667 -9.10985692 11.57726185 -11.1953125 12.7421875 C-12.19723633 13.30131836 -13.19916016 13.86044922 -14.23144531 14.43652344 C-18.54178476 16.87068691 -22.77372746 19.42702626 -26.98828125 22.0234375 C-27.98408203 22.50683594 -27.98408203 22.50683594 -29 23 C-29.66 22.67 -30.32 22.34 -31 22 C-30.09636719 21.45730469 -29.19273437 20.91460937 -28.26171875 20.35546875 C-27.07017612 19.63303739 -25.8787774 18.91036864 -24.6875 18.1875 C-24.09259766 17.83107422 -23.49769531 17.47464844 -22.88476562 17.10742188 C-19.91737371 15.30046255 -17.38142621 13.52416154 -15 11 C-12.06018976 9.60359014 -10.27763744 9 -7 9 C-6.773125 8.195625 -6.54625 7.39125 -6.3125 6.5625 C-5.879375 5.716875 -5.44625 4.87125 -5 4 C-2.375 3.1875 -2.375 3.1875 0 3 C0 2.01 0 1.02 0 0 Z " fill="#212123" transform="translate(279,265)"/>
<path d="M0 0 C0.66 0.33 1.32 0.66 2 1 C1 4 1 4 -1.5625 5.4375 C-2.7690625 6.2109375 -2.7690625 6.2109375 -4 7 C-4 8.32 -4 9.64 -4 11 C-6.31 11 -8.62 11 -11 11 C-11 10.34 -11 9.68 -11 9 C-11.66 9 -12.32 9 -13 9 C-13 9.66 -13 10.32 -13 11 C-14.32 10.67 -15.64 10.34 -17 10 C-4.35151631 1.78523746 -4.35151631 1.78523746 0 0 Z " fill="#7C7C7C" transform="translate(132,123)"/>
<path d="M0 0 C1.32 0.33 2.64 0.66 4 1 C3.04013365 4.85974427 2.08738117 5.93996474 -1.2578125 8.23828125 C-2.53868613 8.94474248 -3.8281445 9.63582391 -5.125 10.3125 C-5.78371094 10.67150391 -6.44242188 11.03050781 -7.12109375 11.40039062 C-8.74018296 12.28033041 -10.3691745 13.14200695 -12 14 C-12.99 13.34 -13.98 12.68 -15 12 C-15 11.01 -15 10.02 -15 9 C-12.36 9.33 -9.72 9.66 -7 10 C-6.67 9.01 -6.34 8.02 -6 7 C-5.34 7 -4.68 7 -4 7 C-4 5.68 -4 4.36 -4 3 C-2.35 3 -0.7 3 1 3 C0.67 2.01 0.34 1.02 0 0 Z " fill="#E2E2E2" transform="translate(215,185)"/>
<path d="M0 0 C4.76551013 1.37605916 8.7248553 3.46778066 12.875 6.125 C13.46796875 6.49753906 14.0609375 6.87007812 14.671875 7.25390625 C16.1181343 8.16365 17.55958046 9.08103798 19 10 C18.01 10.495 18.01 10.495 17 11 C14.65282011 10.07359883 12.44702212 8.94216594 10.19140625 7.8125 C7.87536764 6.69359685 7.87536764 6.69359685 5 8 C1.8125 6.5625 1.8125 6.5625 -1 5 C-0.67 3.35 -0.34 1.7 0 0 Z " fill="#5F5F60" transform="translate(273,127)"/>
<path d="M0 0 C0.66 0.33 1.32 0.66 2 1 C1.47755558 4.76159981 0.7772785 7.32191002 -2 10 C-4.6875 10.25 -4.6875 10.25 -7 10 C-7 9.34 -7 8.68 -7 8 C-7.66 7.34 -8.32 6.68 -9 6 C-6.03 4.02 -3.06 2.04 0 0 Z " fill="#888888" transform="translate(183,93)"/>
<path d="M0 0 C0.66 0.33 1.32 0.66 2 1 C-0.12669835 3.33936818 -2.06224856 4.80653848 -5 6 C-5.99 6 -6.98 6 -8 6 C-8.433125 6.928125 -8.433125 6.928125 -8.875 7.875 C-10 10 -10 10 -12 12 C-12 11.34 -12 10.68 -12 10 C-12.99 10.33 -13.98 10.66 -15 11 C-15 11.99 -15 12.98 -15 14 C-16.65 13.67 -18.3 13.34 -20 13 C-17.12037726 9.86290511 -14.33282095 7.89848524 -10.5625 5.9375 C-7.72676187 4.45061088 -4.97385323 2.98323156 -2.27734375 1.25390625 C-1.52582031 0.84011719 -0.77429688 0.42632812 0 0 Z " fill="#626262" transform="translate(154,110)"/>
<path d="M0 0 C3.82097239 0.53069061 6.06171403 1.49701566 9 4 C4.69230769 7.07692308 4.69230769 7.07692308 1.1875 6.6875 C0.465625 6.460625 -0.25625 6.23375 -1 6 C-0.67 4.02 -0.34 2.04 0 0 Z " fill="#737373" transform="translate(233,105)"/>
<path d="M0 0 C0.66 0.33 1.32 0.66 2 1 C1.690625 1.598125 1.38125 2.19625 1.0625 2.8125 C-0.10209704 5.08956772 -0.10209704 5.08956772 -1 8 C-3.31 8.33 -5.62 8.66 -8 9 C-6.64531705 4.12314139 -4.28324091 2.51407619 0 0 Z " fill="#636365" transform="translate(244,174)"/>
<path d="M0 0 C6.18457808 0 10.98937045 3.76190541 16 7 C15.34 7.66 14.68 8.32 14 9 C11.5 8.875 11.5 8.875 9 8 C8.71382812 7.34773438 8.42765625 6.69546875 8.1328125 6.0234375 C7.17231509 3.80116178 7.17231509 3.80116178 4.8359375 3.171875 C3.61777344 2.96304688 3.61777344 2.96304688 2.375 2.75 C1.55773437 2.60046875 0.74046875 2.4509375 -0.1015625 2.296875 C-1.04128906 2.14992188 -1.04128906 2.14992188 -2 2 C-1.34 1.34 -0.68 0.68 0 0 Z " fill="#5A5A5A" transform="translate(198,85)"/>
<path d="M0 0 C0.66 0.33 1.32 0.66 2 1 C2.33 1.99 2.66 2.98 3 4 C2.01 4 1.02 4 0 4 C-1.2981424 5.1490712 -1.2981424 5.1490712 -2 8 C-4.31 8 -6.62 8 -9 8 C-9.33 7.34 -9.66 6.68 -10 6 C-8.3811004 4.96951963 -6.75467511 3.95085322 -5.125 2.9375 C-4.22007812 2.36902344 -3.31515625 1.80054688 -2.3828125 1.21484375 C-1.20332031 0.61349609 -1.20332031 0.61349609 0 0 Z " fill="#727274" transform="translate(229,183)"/>
<path d="M0 0 C5.96652354 1.57013777 10.82909025 4.75029782 16 8 C13.45297384 9.27351308 12.5717055 8.80191925 9.875 8.0625 C9.15054688 7.86785156 8.42609375 7.67320313 7.6796875 7.47265625 C7.12539062 7.31667969 6.57109375 7.16070312 6 7 C6 6.34 6 5.68 6 5 C5.38125 4.9175 4.7625 4.835 4.125 4.75 C2 4 2 4 0.75 1.9375 C0.5025 1.298125 0.255 0.65875 0 0 Z " fill="#575758" transform="translate(243,110)"/>
<path d="M0 0 C0 0.99 0 1.98 0 3 C1.32 2.67 2.64 2.34 4 2 C4.66 3.98 5.32 5.96 6 8 C1.69235185 6.43358249 -2.06171464 4.31663844 -6 2 C-2.25 0 -2.25 0 0 0 Z " fill="#979797" transform="translate(123,267)"/>
<path d="M0 0 C0.66 0.33 1.32 0.66 2 1 C2 4 2 4 0 7 C-0.99 6.34 -1.98 5.68 -3 5 C-5.475 6.485 -5.475 6.485 -8 8 C-8.66 7.34 -9.32 6.68 -10 6 C-8.3811004 4.96951963 -6.75467511 3.95085322 -5.125 2.9375 C-4.22007812 2.36902344 -3.31515625 1.80054687 -2.3828125 1.21484375 C-1.20332031 0.61349609 -1.20332031 0.61349609 0 0 Z " fill="#777777" transform="translate(166,103)"/>
<path d="M0 0 C0.66 0.33 1.32 0.66 2 1 C0.68 2.32 -0.64 3.64 -2 5 C-1.67 5.99 -1.34 6.98 -1 8 C-7.75 8.125 -7.75 8.125 -10 7 C-8.67408323 4.34816647 -7.13437549 3.74863527 -4.5625 2.3125 C-3.75941406 1.85488281 -2.95632812 1.39726562 -2.12890625 0.92578125 C-1.42636719 0.62027344 -0.72382812 0.31476563 0 0 Z " fill="#D6D6D6" transform="translate(110,251)"/>
<path d="M0 0 C6.52307692 0.61538462 6.52307692 0.61538462 8.9375 2.5625 C9.288125 3.036875 9.63875 3.51125 10 4 C7.03 3.505 7.03 3.505 4 3 C4 3.66 4 4.32 4 5 C2.02 5 0.04 5 -2 5 C-2 4.34 -2 3.68 -2 3 C-1.01 3 -0.02 3 1 3 C0.67 2.01 0.34 1.02 0 0 Z " fill="#656565" transform="translate(263,123)"/>
<path d="M0 0 C0 0.66 0 1.32 0 2 C0.99 2.33 1.98 2.66 3 3 C2.67 3.66 2.34 4.32 2 5 C-1.3 5 -4.6 5 -8 5 C-3.16129032 0 -3.16129032 0 0 0 Z " fill="#8E8E8E" transform="translate(108,138)"/>
<path d="M0 0 C0 0.66 0 1.32 0 2 C-2.31 2 -4.62 2 -7 2 C-7 1.34 -7 0.68 -7 0 C-7.66 0 -8.32 0 -9 0 C-9 0.66 -9 1.32 -9 2 C-10.32 1.67 -11.64 1.34 -13 1 C-7.84596189 -1.68009982 -5.54675294 -2.57044649 0 0 Z " fill="#999999" transform="translate(128,132)"/>
<path d="M0 0 C0.99 0.33 1.98 0.66 3 1 C3.33 2.65 3.66 4.3 4 6 C1.36 6 -1.28 6 -4 6 C-3.67 5.01 -3.34 4.02 -3 3 C-2.34 3 -1.68 3 -1 3 C-0.67 2.01 -0.34 1.02 0 0 Z " fill="#7C7C7F" transform="translate(220,98)"/>
<path d="M0 0 C0.66 0.33 1.32 0.66 2 1 C1.34 3.31 0.68 5.62 0 8 C-1.65 8.33 -3.3 8.66 -5 9 C-4.01 8.01 -3.02 7.02 -2 6 C-2.99 5.01 -3.98 4.02 -5 3 C-2.625 1.4375 -2.625 1.4375 0 0 Z " fill="#7C7C7E" transform="translate(215,191)"/>
<path d="M0 0 C0.66 0.33 1.32 0.66 2 1 C1.67 1.66 1.34 2.32 1 3 C2.32 4.32 3.64 5.64 5 7 C0.75354935 7 -1.38524772 5.18249194 -5 3 C-2 1 -2 1 0 0 Z " fill="#828282" transform="translate(179,299)"/>
<path d="M0 0 C0.66 0.33 1.32 0.66 2 1 C1.2884375 1.6496875 1.2884375 1.6496875 0.5625 2.3125 C-1.23686957 4.02309613 -1.23686957 4.02309613 -2 7 C-3.65 6.67 -5.3 6.34 -7 6 C-7 5.34 -7 4.68 -7 4 C-1.7265625 0.77734375 -1.7265625 0.77734375 0 0 Z " fill="#7C7C7D" transform="translate(207,196)"/>
<path d="M0 0 C3.77545388 1.09068668 6.47043472 1.9083091 9 5 C6.69 5 4.38 5 2 5 C1.34 3.35 0.68 1.7 0 0 Z " fill="#515154" transform="translate(273,127)"/>
<path d="M0 0 C1.65 0 3.3 0 5 0 C5 1.32 5 2.64 5 4 C4.01 4.33 3.02 4.66 2 5 C1.34 4.34 0.68 3.68 0 3 C0 2.01 0 1.02 0 0 Z " fill="#F0F0F0" transform="translate(200,194)"/>
<path d="M0 0 C0.33 0.66 0.66 1.32 1 2 C1.66 2.33 2.32 2.66 3 3 C-1.95 5.475 -1.95 5.475 -7 8 C-6.67 7.01 -6.34 6.02 -6 5 C-4.33333333 4.33333333 -2.66666667 3.66666667 -1 3 C-0.67 2.01 -0.34 1.02 0 0 Z " fill="#7B7B7D" transform="translate(287,146)"/>
<path d="M0 0 C0.66 0.33 1.32 0.66 2 1 C-2.30769231 5.92307692 -2.30769231 5.92307692 -5.8125 6.3125 C-6.8953125 6.1578125 -6.8953125 6.1578125 -8 6 C-5.54080489 3.3651481 -3.42227589 1.25483449 0 0 Z " fill="#606060" transform="translate(194,87)"/>
<path d="M0 0 C1.485 0.99 1.485 0.99 3 2 C3.1875 4.625 3.1875 4.625 3 7 C1.68 6.34 0.36 5.68 -1 5 C-0.67 3.35 -0.34 1.7 0 0 Z " fill="#D0D0D0" transform="translate(197,308)"/>
<path d="M0 0 C0.66 0 1.32 0 2 0 C1.67 1.65 1.34 3.3 1 5 C0.34 5 -0.32 5 -1 5 C-1.33 5.99 -1.66 6.98 -2 8 C-2.66 7.34 -3.32 6.68 -4 6 C-3.34 4.68 -2.68 3.36 -2 2 C-1.34 2 -0.68 2 0 2 C0 1.34 0 0.68 0 0 Z " fill="#5E5E5E" transform="translate(254,168)"/>
<path d="M0 0 C1.65 0.33 3.3 0.66 5 1 C3.68 2.32 2.36 3.64 1 5 C0.34 4.01 -0.32 3.02 -1 2 C-0.67 1.34 -0.34 0.68 0 0 Z " fill="#6C6C6C" transform="translate(233,105)"/>
<path d="M0 0 C0.66 0.33 1.32 0.66 2 1 C-0.40436026 4.60654039 -1.94679607 4.85452932 -6 6 C-5 3 -5 3 -2.5625 1.25 C-1.716875 0.8375 -0.87125 0.425 0 0 Z " fill="#6D6D6E" transform="translate(244,174)"/>
</svg>
